<?xml version="1.0" standalone="no"?>
<!DOCTYPE svg PUBLIC "-//W3C//DTD SVG 20010904//EN"
 "http://www.w3.org/TR/2001/REC-SVG-20010904/DTD/svg10.dtd">
<svg version="1.0" xmlns="http://www.w3.org/2000/svg"
 width="700.000000pt" height="700.000000pt" viewBox="0 0 700.000000 700.000000"
 preserveAspectRatio="xMidYMid meet">
<metadata>
Created by potrace 1.14, written by Peter Selinger 2001-2017
</metadata>
<g transform="translate(0.000000,700.000000) scale(0.100000,-0.100000)"
fill="#000000" stroke="none">
<path d="M1530 5130 c-4 -8 -38 -94 -75 -190 -37 -96 -102 -267 -145 -380 -43
-113 -130 -342 -194 -510 -64 -168 -134 -350 -155 -405 -39 -101 -105 -274
-143 -375 -11 -30 -25 -64 -29 -75 -9 -20 -225 -588 -320 -840 -27 -71 -53
-139 -58 -150 -13 -30 -64 -165 -112 -295 -24 -63 -47 -121 -52 -127 -8 -10
41 -13 236 -13 l245 0 12 38 c7 20 29 84 50 142 21 58 77 215 125 350 117 332
116 328 129 332 9 3 1489 2 1508 -1 4 0 10 -11 13 -23 4 -13 45 -129 91 -258
46 -130 84 -239 84 -244 0 -4 6 -22 14 -39 7 -18 18 -45 24 -62 6 -16 27 -76
47 -132 l37 -103 234 0 c142 0 234 4 234 10 0 8 -11 39 -31 85 -5 11 -20 49
-33 85 -35 97 -155 412 -165 435 -9 18 -62 160 -97 255 -7 19 -53 142 -103
272 -50 131 -91 240 -91 243 0 3 -9 24 -19 48 -10 23 -42 105 -71 182 -28 77
-55 149 -61 160 -5 11 -20 52 -35 90 -43 118 -275 729 -284 750 -11 25 -30 76
-170 445 -62 162 -116 299 -121 304 -5 6 -118 10 -260 10 -213 1 -252 -1 -259
-14z m287 -507 c11 -32 120 -328 242 -658 272 -731 351 -946 351 -948 0 -2
-1221 0 -1231 2 -5 1 28 94 160 451 22 58 74 200 116 315 42 116 81 221 87
235 5 14 30 81 55 150 24 69 50 139 57 155 8 17 40 103 72 192 33 90 62 163
66 163 3 0 15 -26 25 -57z"/>
<path d="M3837 5138 c-9 -5 -12 -403 -11 -1675 1 -917 2 -1674 3 -1681 1 -10
139 -12 689 -11 670 1 737 3 917 34 39 7 179 48 220 64 40 16 171 85 202 106
153 103 274 269 323 447 30 106 35 157 34 313 -1 169 -22 266 -88 400 -76 154
-209 288 -361 365 -68 34 -199 80 -228 80 -34 0 -13 10 54 26 231 57 406 228
458 449 21 89 22 99 26 220 5 137 -12 256 -49 347 -122 301 -413 476 -856 514
-107 9 -1317 11 -1333 2z m1323 -382 c329 -65 466 -221 456 -521 -8 -240 -113
-376 -341 -443 -111 -33 -128 -34 -571 -39 l-421 -5 2 509 c1 279 3 510 3 511
3 7 837 -6 872 -12z m66 -1388 c12 -4 37 -9 55 -12 106 -17 233 -82 309 -158
51 -51 114 -164 124 -223 3 -16 8 -41 11 -55 13 -55 12 -239 -2 -315 -16 -93
-64 -201 -117 -262 -78 -90 -215 -155 -383 -184 -43 -7 -228 -12 -504 -13
l-436 -2 0 619 0 618 461 -4 c254 -2 471 -6 482 -9z"/>
</g>
</svg>
