<svg width="35" height="35" viewBox="0 0 35 35" fill="none" xmlns="http://www.w3.org/2000/svg">
<path d="M17.5 0.252411C22.1842 0.252411 22.7721 0.272532 24.6132 0.357333C30.8827 0.644793 34.3624 4.13168 34.6441 10.3897C34.7275 12.2294 34.7476 12.8158 34.7476 17.5C34.7476 22.1842 34.7275 22.772 34.6427 24.6118C34.3596 30.8813 30.8698 34.3566 24.6118 34.6441C22.7721 34.7275 22.1842 34.7476 17.5 34.7476C12.8159 34.7476 12.2295 34.7275 10.3883 34.6441C4.11878 34.3566 0.643387 30.8755 0.355927 24.6118C0.272563 22.772 0.252441 22.1842 0.252441 17.5C0.252441 12.8158 0.272564 12.2294 0.357365 10.3882C0.644824 4.11875 4.12596 0.643356 10.3897 0.355896C12.2295 0.272533 12.8159 0.252411 17.5 0.252411ZM17.5 7.14136C11.7794 7.14136 7.14139 11.7794 7.14139 17.5C7.14139 23.2206 11.7794 27.8603 17.5 27.8603C23.2207 27.8603 27.8587 23.2223 27.8587 17.5C27.8587 11.7794 23.2207 7.14136 17.5 7.14136ZM28.2689 4.31215C26.9307 4.31215 25.8465 5.39643 25.8465 6.73286C25.8465 8.0693 26.9307 9.15358 28.2689 9.15358C29.6053 9.15358 30.6879 8.0693 30.6879 6.73286C30.6879 5.39643 29.6053 4.31215 28.2689 4.31215ZM17.5 24.2242C13.7866 24.2242 10.7758 21.2151 10.7758 17.5C10.7758 13.7866 13.7866 10.7758 17.5 10.7758C21.2135 10.7758 24.2242 13.7866 24.2242 17.5C24.2242 21.2151 21.2135 24.2242 17.5 24.2242Z" fill="#D7DADD"/>
</svg>
