<svg width="40" height="27" viewBox="0 0 40 27" fill="none" xmlns="http://www.w3.org/2000/svg">
<path d="M16.1441 12.0708C16.1441 12.0708 19.9287 11.7713 19.9287 7.04029C19.9287 2.30891 16.8324 -9.15527e-05 12.9102 -9.15527e-05H0.00390625V26.4395H12.9102C12.9102 26.4395 20.789 26.7048 20.789 18.6358C20.789 18.6358 21.1325 12.0708 16.1441 12.0708ZM11.9812 4.69925H12.9102C12.9102 4.69925 14.6646 4.69925 14.6646 7.45017C14.6646 10.2008 13.6328 10.5996 12.4625 10.5996H5.69059V4.69925H11.9812ZM12.5455 21.7403H5.69059V14.6747H12.9102C12.9102 14.6747 15.525 14.6381 15.525 18.3057C15.525 21.3983 13.572 21.717 12.5455 21.7403ZM31.2968 6.72692C21.7587 6.72692 21.7671 16.8858 21.7671 16.8858C21.7671 16.8858 21.1127 26.9926 31.2968 26.9926C31.2968 26.9926 39.7835 27.5094 39.7835 19.9619H35.4189C35.4189 19.9619 35.5645 22.8041 31.4424 22.8041C31.4424 22.8041 27.0771 23.116 27.0771 18.2043H39.9291C39.9291 18.2042 41.3353 6.72692 31.2968 6.72692ZM27.0291 14.6747C27.0291 14.6747 27.5621 10.5995 31.3938 10.5995C35.2247 10.5995 35.1767 14.6747 35.1767 14.6747H27.0291ZM36.1934 4.81338H25.9606V1.55754H36.1934V4.81338Z" fill="#D7DADD"/>
</svg>
